<?xml version="1.0" encoding="utf-8"?>
<!-- Generator: Adobe Illustrator 22.1.0, SVG Export Plug-In . SVG Version: 6.00 Build 0)  -->
<svg version="1.1" id="Layer_1" xmlns="http://www.w3.org/2000/svg" xmlns:xlink="http://www.w3.org/1999/xlink" x="0px" y="0px"
	 viewBox="0 0 511.4 236.8" style="enable-background:new 0 0 511.4 236.8;" xml:space="preserve">
<style type="text/css">
	.st0{fill:#96A8B1;}
	.st1{fill:#CBC9BD;}
	.st2{fill:#E3E2DE;}
	.st3{fill:#5A7B91;}
</style>
<path class="st0" d="M364,77.3c3,3,3,7,4,10l-55,3l-20,1c-2.7,0.6-5.3-1.2-5.9-3.9c-0.1-0.4-0.1-0.7-0.1-1.1c-0.2-2.6,1.8-4.8,4.4-5
	c0.2,0,0.4,0,0.6,0l34-2L364,77.3z"/>
<title>logo</title>
<path class="st0" d="M4.1,124.6C3.4,84.4,34.6,45.5,71.3,41.2C143,35.9,153,96.3,153,96.3c2,5,2,11,3,16c-1.3-0.1-2.7-0.1-4,0
	l-107,18c-5,1-8.1,3.1-7,8c9.6,43.9,47.6,57.2,85.1,45.9l53.9-12.9l38-11l-3,10c-7,17-16,32-30,44c-2,2-6,4-7,7c-0.3,0-0.7,0-1,0
	l-1,1c-44.4,23.7-98.8,17.8-137-15C2.4,174,4.1,124.6,4.1,124.6z"/>
<path class="st1" d="M215,160.3c2-8,5-15,5-23c0.4-1,0.8-2,1-3l3-30c0-3,1-4,5-4h42l98,1c-1,15-7,28-12,42c-1,2-3,4-2,7
	c-10,0-18,5-26,9l-130,52c-8,4-16,8-24,10c1-3,5-4,7-7c14-12,23-27,30-44L215,160.3z"/>
<path class="st1" d="M414,139.3c4-11,7-23,7-35c1-7,0-15-1-22l24-9l50-20l9-3c4-2,6-1,7,3c3,11,1,21-3,31c-9,21-24,37-46,46
	c-10,5-22,5-33,7L414,139.3z"/>
<path class="st2" d="M412,65.3c-5.1-5.6-10.4-10.9-16-16l-9-7l-19-10l11-6l46-24c10-5,20-1,28,3c20,10,34,26,41,48l-50,20l-24,9
	L412,65.3"/>
<path class="st3" d="M38,138.3c0-5,2-7,7-8l107-18c1.3-0.1,2.7-0.1,4,0c0,0-4.6,39.9-8,46C131.4,209.5,39.9,198.6,38,138.3z"/>
<path class="st0" d="M271,100.3h-42c-4,0-5,1-5,4l-3,30c-0.2,1-0.6,2-1,3l-23,2c-6,0-9-3-6-9c1.5-5.2,2.5-10.6,3-16
	c1.9-17.2-2.4-34.6-12-49c-1-3-3-5-1-8s5-3,7-3h55c4,0,6,1,9,4C266,69.3,271,83.3,271,100.3z"/>
<path class="st2" d="M102,45.3c-2-1-5,0-7-2c1-2,3-1,5-1h20l166-1l34-1c2.4,0,49.9,29,44,37l-38,2l-34,2c-2.6-0.2-4.8,1.8-5,4.4
	c0,0.2,0,0.4,0,0.6c-0.1,2.8,2.1,5,4.9,5.1c0,0,0,0,0,0c0.4,0,0.7,0,1.1-0.1l20-1c18-2,37-2,55-3c1.2,4.6,1.5,9.3,1,14l-98-1
	c0-17-6-31-19-42c-3-3-5-4-9-4h-55c-2,0-5,0-7,3s0,5,1,8c9.6,14.4,13.9,31.8,12,49c-0.5,5.4-1.5,10.8-3,16c-2,6,0,9,6,9l23-2
	c0,8-3,15-5,23l-38,11l-53,14l-3.1,1.3C163.2,165.7,162.8,58.8,102,45.3z"/>
<path class="st3" d="M353.1,150.4c16-53.5-3.7-98.5-33.1-110.1c0-3,2-4,5-5l36-5c51,1.5,78.2,74.4,53,109c-2,3-4,5-8,5l-45,8
	C358.8,152.9,354.5,152.1,353.1,150.4z"/>
</svg>
